HIERARCHY
ROOT Hips
{
	OFFSET 0.000000 0.000000 0.000000
	CHANNELS 6 Xposition Yposition Zposition Zrotation Yrotation Xrotation 
	JOINT LHipJoint
	{
		OFFSET 0.000000 0.000000 0.000000
		CHANNELS 3 Zrotation Yrotation Xrotation
		JOINT LeftUpLeg
		{
			OFFSET 1.363060 -1.794630 0.839290
			CHANNELS 3 Zrotation Yrotation Xrotation
			JOINT LeftLeg
			{
				OFFSET 2.448110 -6.726130 0.000000
				CHANNELS 3 Zrotation Yrotation Xrotation
				JOINT LeftFoot
				{
					OFFSET 2.562200 -7.039590 0.000000
					CHANNELS 3 Zrotation Yrotation Xrotation
					JOINT LeftToeBase
					{
						OFFSET 0.157640 -0.433110 2.322550
						CHANNELS 3 Zrotation Yrotation Xrotation
						End Site
						{
							OFFSET 0.000000 0.000000 0.000000
						}
					}
				}
			}
		}
	}
	JOINT RHipJoint
	{
		OFFSET 0.000000 0.000000 0.000000
		CHANNELS 3 Zrotation Yrotation Xrotation
		JOINT RightUpLeg
		{
			OFFSET -1.305520 -1.794630 0.839290
			CHANNELS 3 Zrotation Yrotation Xrotation
			JOINT RightLeg
			{
				OFFSET -2.542530 -6.985550 0.000000
				CHANNELS 3 Zrotation Yrotation Xrotation
				JOINT RightFoot
				{
					OFFSET -2.568260 -7.056230 0.000000
					CHANNELS 3 Zrotation Yrotation Xrotation
					JOINT RightToeBase
					{
						OFFSET -0.164730 -0.452590 2.363150
						CHANNELS 3 Zrotation Yrotation Xrotation
						End Site
						{
							OFFSET 0.000000 0.000000 0.000000
						}
					}
				}
			}
		}
	}
	JOINT LowerBack
	{
		OFFSET 0.000000 0.000000 0.000000
		CHANNELS 3 Zrotation Yrotation Xrotation
		JOINT Spine
		{
			OFFSET 0.028270 2.035590 -0.193380
			CHANNELS 3 Zrotation Yrotation Xrotation
			JOINT Spine1
			{
				OFFSET 0.056720 2.048850 -0.042750
				CHANNELS 3 Zrotation Yrotation Xrotation
				JOINT Neck
				{
					OFFSET 0.000000 0.000000 0.000000
					CHANNELS 3 Zrotation Yrotation Xrotation
					JOINT Neck1
					{
						OFFSET -0.054170 1.746240 0.172020
						CHANNELS 3 Zrotation Yrotation Xrotation
						JOINT Head
						{
							OFFSET 0.104070 1.761360 -0.123970
							CHANNELS 3 Zrotation Yrotation Xrotation
							End Site
							{
								OFFSET 0.000000 0.000000 0.000000
							}
						}
					}
				}
				JOINT LeftShoulder
				{
					OFFSET 0.000000 0.000000 0.000000
					CHANNELS 3 Zrotation Yrotation Xrotation
					JOINT LeftArm
					{
						OFFSET 3.362410 1.200890 -0.311210
						CHANNELS 3 Zrotation Yrotation Xrotation
						JOINT LeftForeArm
						{
							OFFSET 4.983000 -0.000000 -0.000000
							CHANNELS 3 Zrotation Yrotation Xrotation
							JOINT LeftHand
							{
								OFFSET 3.483560 -0.000000 -0.000000
								CHANNELS 3 Zrotation Yrotation Xrotation
								JOINT LeftFingerBase
								{
									OFFSET 0.000000 0.000000 0.000000
									CHANNELS 3 Zrotation Yrotation Xrotation
									JOINT LeftHandIndex1
									{
										OFFSET 0.715260 -0.000000 -0.000000
										CHANNELS 3 Zrotation Yrotation Xrotation
										End Site
										{
											OFFSET 0.000000 0.000000 0.000000
										}
									}
								}
								JOINT LThumb
								{
									OFFSET 0.000000 0.000000 0.000000
									CHANNELS 3 Zrotation Yrotation Xrotation
									End Site
									{
										OFFSET 0.000000 0.000000 0.000000
									}
								}
							}
						}
					}
				}
				JOINT RightShoulder
				{
					OFFSET 0.000000 0.000000 0.000000
					CHANNELS 3 Zrotation Yrotation Xrotation
					JOINT RightArm
					{
						OFFSET -3.136600 1.374050 -0.404650
						CHANNELS 3 Zrotation Yrotation Xrotation
						JOINT RightForeArm
						{
							OFFSET -5.241900 -0.000000 -0.000000
							CHANNELS 3 Zrotation Yrotation Xrotation
							JOINT RightHand
							{
								OFFSET -3.444170 -0.000000 -0.000000
								CHANNELS 3 Zrotation Yrotation Xrotation
								JOINT RightFingerBase
								{
									OFFSET 0.000000 0.000000 0.000000
									CHANNELS 3 Zrotation Yrotation Xrotation
									JOINT RightHandIndex1
									{
										OFFSET -0.622530 -0.000000 -0.000000
										CHANNELS 3 Zrotation Yrotation Xrotation
										End Site
										{
											OFFSET 0.000000 0.000000 0.000000
										}
									}
								}
								JOINT RThumb
								{
									OFFSET 0.000000 0.000000 0.000000
									CHANNELS 3 Zrotation Yrotation Xrotation
									End Site
									{
										OFFSET 0.000000 0.000000 0.000000
									}
								}
							}
						}
					}
				}
			}
		}
	}
}
MOTION
Frames: 8
Frame Time: 0.008333
1.580937 17.991033 0.364390 149.560314 87.963685 162.468127 -3.513841 0.764606 1.842158 -15.021151 5.293982 -19.080810 0.943229 5.685468 16.067584 0.884920 -1.312283 1.083360 1.578700 -7.927000 -22.492700 -2.109714 -2.138341 -0.250826 17.944716 -1.247942 -6.945107 -0.499095 -0.078200 3.081240 -0.137741 1.190682 0.142944 -0.508900 4.572900 -12.694200 1.777685 -0.179889 -10.849481 1.698290 -0.845692 -4.396177 -3.836106 -0.191528 3.461307 -2.242513 -2.374796 -20.009356 5.709329 -2.309796 19.759779 -0.459600 -0.095800 9.660900 0.334624 -6.740082 1.627150 -87.044424 3.103171 16.865776 29.368032 -35.515213 -8.221261 -2.547673 1.416494 -171.580651 33.632797 -19.403906 -10.919300 -7.125000 0.000000 0.000000 1.733200 8.336200 -1.464300 0.511925 9.413571 3.094614 87.058725 -0.653937 16.776099 -32.686712 39.972770 -7.296962 3.577303 0.388962 -158.195556 -28.955154 -10.200769 4.116600 7.125000 0.000000 0.000000 0.965400 -39.477800 0.131400 
1.581424 17.990059 0.363708 149.014340 87.966896 161.935838 -3.502065 0.767443 1.838691 -15.062066 5.288666 -19.096223 0.944875 5.687748 16.077525 0.878815 -1.287122 1.064438 1.608900 -7.998900 -22.710600 -2.096766 -2.133371 -0.252870 17.907207 -1.253980 -6.922437 -0.496007 -0.054704 3.013103 -0.132627 1.155314 0.161849 -0.512500 4.588900 -12.739600 1.766582 -0.156913 -10.830848 1.684525 -0.817090 -4.413635 -3.827425 -0.178176 3.445318 -2.264885 -2.403116 -20.021254 5.728034 -2.343121 19.793664 -0.454200 -0.108500 9.672000 0.334828 -6.736503 1.627051 -87.059311 3.075077 16.858908 29.358694 -35.509910 -8.221805 -2.558241 1.424332 -171.618693 33.802295 -19.505538 -11.041100 -7.125000 0.000000 0.000000 1.821000 8.192100 -1.543700 0.510853 9.413945 3.095151 87.050775 -0.625288 16.741517 -32.658664 39.948584 -7.284190 3.575820 0.391974 -158.179705 -28.938903 -10.241061 4.132100 7.125000 0.000000 0.000000 0.980000 -39.518300 0.132400 
1.582690 17.991715 0.363611 150.088819 87.974196 163.026265 -3.524634 0.761197 1.840685 -14.971948 5.226038 -19.091487 0.943839 5.691327 16.080096 0.877651 -1.278774 1.044323 1.552100 -7.863100 -22.299100 -2.122496 -2.142588 -0.255506 17.982573 -1.268162 -6.889559 -0.492687 -0.017193 2.917155 -0.126964 1.125386 0.208704 -0.524900 4.643200 -12.893600 1.790536 -0.162984 -10.837311 1.729288 -0.816599 -4.416940 -3.841123 -0.178616 3.447376 -2.255799 -2.408720 -20.022462 5.694933 -2.347263 19.808010 -0.465800 -0.112700 9.676100 0.328682 -6.734904 1.625756 -87.081820 3.043372 16.820020 29.366983 -35.526127 -8.236133 -2.571438 1.446591 -171.593477 34.070571 -19.736043 -11.271500 -7.125000 0.000000 0.000000 1.950400 7.890200 -1.665200 0.511269 9.413035 3.096328 87.046397 -0.602833 16.708339 -32.701945 39.986331 -7.305434 3.576844 0.386044 -158.150999 -28.943913 -10.202844 4.115900 7.125000 0.000000 0.000000 0.974900 -39.479700 0.132600 
1.582885 17.994052 0.364098 149.968849 87.975787 162.917543 -3.522323 0.761245 1.838889 -14.952111 5.167904 -19.076814 0.943472 5.689265 16.075111 0.881620 -1.296338 1.041229 1.492900 -7.718600 -21.862700 -2.121325 -2.141745 -0.252302 17.985260 -1.226773 -6.980868 -0.498263 -0.069687 3.058402 -0.131711 1.151703 0.171826 -0.532000 4.673900 -12.980700 1.798004 -0.164100 -10.839635 1.707875 -0.821477 -4.419028 -3.850180 -0.180842 3.448118 -2.265993 -2.410677 -20.008728 5.740032 -2.354138 19.825315 -0.451600 -0.109700 9.679500 0.329323 -6.732462 1.626137 -87.057017 3.025628 16.795625 29.378527 -35.544010 -8.253753 -2.592784 1.467579 -171.616671 34.442281 -19.971253 -11.551100 -7.125000 0.000000 0.000000 2.138700 7.557700 -1.840200 0.514412 9.413407 3.095764 87.061565 -0.580318 16.719649 -32.717890 40.003762 -7.313901 3.580085 0.379386 -158.181431 -28.962298 -10.129512 4.086000 7.125000 0.000000 0.000000 0.959000 -39.406200 0.132200 
1.582982 17.991617 0.364682 149.262777 87.967492 162.201130 -3.507314 0.765837 1.837839 -14.999786 5.153201 -19.059645 0.946617 5.694812 16.095887 0.874198 -1.267092 1.034319 1.523900 -7.794800 -22.092400 -2.104028 -2.136332 -0.254797 17.928185 -1.264352 -6.901750 -0.493381 -0.020865 2.922128 -0.129405 1.144612 0.237450 -0.505800 4.559000 -12.654900 1.772310 -0.156052 -10.809899 1.673086 -0.814726 -4.426878 -3.838096 -0.177127 3.433310 -2.291012 -2.415246 -19.954056 5.814753 -2.370903 19.792340 -0.428800 -0.112100 9.660800 0.330588 -6.732530 1.627570 -87.036962 3.023688 16.787367 29.408070 -35.575734 -8.278098 -2.617566 1.461891 -171.711598 34.823382 -19.948655 -11.704700 -7.125000 0.000000 0.000000 2.368000 7.491300 -2.040800 0.519412 9.410712 3.094195 87.081155 -0.568753 16.673933 -32.729865 40.021978 -7.328076 3.600250 0.359441 -158.207979 -29.097016 -9.926165 4.012900 7.125000 0.000000 0.000000 0.850300 -39.200500 0.121500 
1.583664 17.989378 0.365071 149.077233 87.982055 162.039189 -3.503188 0.765122 1.834021 -15.013888 5.169555 -19.078072 0.947774 5.698426 16.106444 0.873112 -1.262258 1.011764 1.550800 -7.860000 -22.289700 -2.100985 -2.134850 -0.258144 17.924391 -1.259291 -6.879778 -0.491016 0.002685 2.855589 -0.125582 1.122079 0.273739 -0.497600 4.522600 -12.551900 1.769009 -0.162147 -10.793620 1.668942 -0.822480 -4.480017 -3.838394 -0.181214 3.414909 -2.296344 -2.388385 -19.874167 5.852451 -2.345526 19.754401 -0.414700 -0.098100 9.637500 0.333417 -6.734894 1.631222 -87.060197 3.019537 16.675136 29.429205 -35.580011 -8.268477 -2.608603 1.367411 -171.654707 34.584424 -18.874742 -11.041900 -7.125000 0.000000 0.000000 2.373600 8.676200 -1.990100 0.519152 9.408148 3.094104 87.105003 -0.554143 16.654162 -32.703294 40.010062 -7.326707 3.620331 0.360173 -158.174815 -29.277136 -9.929314 4.038100 7.125000 0.000000 0.000000 0.708200 -39.204600 0.101100 
1.584345 17.991228 0.365850 149.645708 87.979542 162.631994 -3.514572 0.759095 1.829992 -14.971918 5.173853 -19.112456 0.946935 5.699602 16.105781 0.887476 -1.322012 1.004045 1.516000 -7.775400 -22.034000 -2.115514 -2.138098 -0.258760 17.968999 -1.227892 -6.971156 -0.496651 -0.052471 3.007606 -0.132795 1.159397 0.183707 -0.505800 4.559100 -12.655100 1.785436 -0.183016 -10.754211 1.683582 -0.844139 -4.540287 -3.846661 -0.193288 3.375482 -2.258424 -2.377541 -19.892005 5.765857 -2.319914 19.860625 -0.439900 -0.086800 9.670600 0.332201 -6.729966 1.634526 -87.086976 3.013459 16.588607 29.437748 -35.571136 -8.242928 -2.563091 1.286889 -171.610170 33.779181 -17.983925 -10.257900 -7.125000 0.000000 0.000000 2.006100 9.788000 -1.636900 0.518467 9.413132 3.100704 87.110444 -0.573786 16.674224 -32.723634 40.034754 -7.344204 3.631109 0.370708 -158.184557 -29.432842 -9.997626 4.091200 7.125000 0.000000 0.000000 0.582200 -39.277100 0.082100 
1.584053 17.992104 0.366727 148.861857 87.968219 161.857266 -3.498026 0.763698 1.824691 -15.000792 5.081332 -19.090841 0.949040 5.702218 16.117012 0.875635 -1.272427 0.958892 1.487500 -7.705200 -21.822200 -2.097101 -2.130375 -0.259025 17.916682 -1.221002 -7.007216 -0.498639 -0.068444 3.046155 -0.139706 1.204765 0.171741 -0.494100 4.506900 -12.507400 1.765047 -0.181909 -10.694207 1.650276 -0.844536 -4.570916 -3.830183 -0.195678 3.327493 -2.231391 -2.418098 -20.008437 5.706238 -2.354682 20.065893 -0.460900 -0.095100 9.747200 0.330642 -6.715950 1.638309 -87.082654 3.030554 16.598530 29.480051 -35.602433 -8.237715 -2.492625 1.258042 -171.750330 32.605604 -17.779402 -9.707000 -7.125000 0.000000 0.000000 1.320900 10.243000 -1.065200 0.520173 9.423196 3.106881 87.139033 -0.584736 16.619616 -32.757549 40.069491 -7.363092 3.634224 0.369854 -158.115932 -29.462184 -10.024491 4.107300 7.125000 0.000000 0.000000 0.559200 -39.304600 0.078500 
